<?xml version="1.0" encoding="iso-8859-1"?>
<!-- Generator: Adobe Illustrator 23.0.4, SVG Export Plug-In . SVG Version: 6.00 Build 0)  -->
<svg version="1.1" id="Layer_1" xmlns="http://www.w3.org/2000/svg" xmlns:xlink="http://www.w3.org/1999/xlink" x="0px" y="0px"
	 viewBox="0 0 260 92" style="enable-background:new 0 0 260 92;" xml:space="preserve">
<path style="fill:#230A58;" d="M32.348,33.559V21.619h11.941c13.282,0,23.881,10.733,23.881,23.881
	c0,13.282-10.733,23.881-23.881,23.881H32.348V57.441h11.941c6.574,0,11.941-5.367,11.941-11.941s-5.367-11.941-11.941-11.941
	H32.348z"/>
<path style="fill:#7865FF;" d="M32.348,33.559H20.407V57.44h11.941V33.559z"/>
<path style="fill:#230A58;" d="M98.892,36.779c-0.939-0.939-2.147-1.744-3.488-2.281c-1.342-0.537-2.817-0.805-4.293-0.805H80.243
	v23.881h10.867c1.476,0,2.952-0.268,4.293-0.805c1.342-0.537,2.549-1.342,3.488-2.415c1.073-0.939,1.744-2.147,2.415-3.488
	c0.537-1.342,0.805-2.817,0.805-4.293v-2.012c0-1.476-0.268-2.952-0.805-4.293C100.636,38.926,99.965,37.719,98.892,36.779z
	 M98.892,46.573c0,2.147-0.805,3.891-2.281,5.501c-0.671,0.671-1.476,1.207-2.415,1.61s-1.878,0.537-2.952,0.537h-7.781V36.779
	h7.781c2.147,0,3.891,0.805,5.501,2.281c1.476,1.476,2.281,3.354,2.281,5.501v2.012H98.892z"/>
<path style="fill:#230A58;" d="M118.211,42.817c-1.744-1.61-3.622-2.549-6.037-2.549c-2.281,0-4.293,0.805-6.037,2.549
	c-1.61,1.744-2.549,3.622-2.549,6.037c0,2.281,0.805,4.293,2.549,6.037c0.805,0.805,1.744,1.342,2.683,1.878
	c1.073,0.402,2.147,0.671,3.354,0.671c1.207,0,2.415-0.268,3.488-0.805c1.073-0.537,2.147-1.342,3.22-2.549l-2.147-1.878
	c-1.476,1.61-2.952,2.415-4.696,2.415c-1.61,0-2.952-0.537-4.025-1.744c-0.939-0.939-1.476-1.744-1.61-2.549h13.953l0.134-1.342
	c0-1.207-0.268-2.281-0.671-3.354C119.687,44.427,119.016,43.487,118.211,42.817z M106.673,47.378
	c0.134-0.805,0.671-1.744,1.61-2.683c0.537-0.537,1.073-0.939,1.744-1.207c0.671-0.268,1.476-0.402,2.281-0.402
	c1.476,0,2.817,0.537,4.025,1.744c0.939,0.939,1.476,1.744,1.476,2.683h-11.136V47.378z"/>
<path style="fill:#230A58;" d="M125.188,55.026c0.671,0.671,1.476,1.073,2.415,1.476c1.073,0.402,2.147,0.671,3.22,0.671
	c1.207,0,2.281-0.268,3.354-0.671c1.073-0.402,1.878-1.073,2.683-1.878c1.61-1.744,2.549-3.622,2.549-6.037
	c0-2.415-0.939-4.159-2.549-5.769c-1.61-1.744-3.622-2.549-6.037-2.549c-2.147,0-4.025,0.671-5.635,2.147v-1.073v-7.781h-2.817
	v22.942h2.817V55.026z M134.848,52.745c-1.073,1.073-2.415,1.744-4.025,1.744s-2.952-0.537-4.025-1.744
	c-1.073-1.073-1.61-2.415-1.61-4.025s0.537-2.952,1.61-4.025c1.207-1.207,2.549-1.744,4.025-1.744c0.805,0,1.476,0.134,2.281,0.402
	c0.671,0.268,1.342,0.671,1.878,1.207c1.073,1.073,1.61,2.415,1.61,4.025C136.592,50.33,136.055,51.672,134.848,52.745z"/>
<path style="fill:#230A58;" d="M149.472,40.268c-2.147,0-4.025,0.671-5.635,2.147v-0.268v-1.073v-6.44v-1.073h-2.817v1.073v21.869
	h2.817v-0.537v-0.537V55.16c0.671,0.671,1.476,1.073,2.415,1.476c1.073,0.402,2.147,0.671,3.22,0.671
	c1.208,0,2.281-0.268,3.355-0.671c1.073-0.402,1.878-1.073,2.682-1.878c1.61-1.744,2.549-3.622,2.549-6.037
	c0-2.281-0.805-4.293-2.415-6.037C153.9,41.073,151.887,40.268,149.472,40.268z M153.497,52.745
	c-1.073,1.073-2.415,1.744-4.025,1.744c-1.61,0-2.952-0.537-4.025-1.744c-1.073-1.073-1.61-2.415-1.61-4.025s0.537-2.952,1.61-4.025
	c1.207-1.207,2.549-1.744,4.025-1.744c0.805,0,1.476,0.134,2.281,0.402c0.671,0.268,1.341,0.671,1.878,1.207
	c1.074,1.073,1.61,2.415,1.61,4.025C155.241,50.33,154.705,51.672,153.497,52.745z"/>
<path style="fill:#230A58;" d="M162.351,33.559h-2.818v3.354h2.818V33.559z"/>
<path style="fill:#230A58;" d="M162.351,39.328h-2.818v17.978h2.818V39.328z"/>
<path style="fill:#230A58;" d="M181,48.854c0-1.207-0.268-2.281-0.671-3.354s-1.073-2.012-1.878-2.683
	c-1.744-1.61-3.622-2.549-6.037-2.549c-2.281,0-4.293,0.805-6.037,2.549c-1.61,1.744-2.548,3.622-2.548,6.037
	c0,2.281,0.804,4.293,2.548,6.037c0.805,0.805,1.744,1.342,2.684,1.878c1.073,0.402,2.147,0.671,3.354,0.671
	c1.208,0,2.415-0.268,3.488-0.805c1.074-0.537,2.147-1.342,3.221-2.549l-2.147-1.878c-1.475,1.61-2.952,2.415-4.696,2.415
	c-1.61,0-2.951-0.537-4.025-1.744c-0.938-0.939-1.475-1.744-1.61-2.549h13.953L181,48.854z M166.913,47.378
	c0.134-0.805,0.671-1.744,1.61-2.683c0.537-0.537,1.074-0.939,1.744-1.207c0.671-0.268,1.477-0.402,2.281-0.402
	c1.475,0,2.818,0.537,4.025,1.744c0.94,0.939,1.475,1.744,1.475,2.683h-11.135V47.378z"/>
</svg>
